<svg width="34" height="34" viewBox="0 0 34 34" fill="none" xmlns="http://www.w3.org/2000/svg">
<path fill-rule="evenodd" clip-rule="evenodd" d="M13.7508 6.22147C14.4817 5.68623 15.7358 5.42771 17.1455 5.48757C18.5561 5.54746 19.7629 5.90993 20.2944 6.25586C21.1334 6.80194 21.6061 7.99741 21.7971 9.407C21.8865 10.0662 21.9021 10.6847 21.8944 11.1411C21.8906 11.3678 21.8812 11.5508 21.873 11.6742C21.8689 11.7358 21.8651 11.7823 21.8626 11.8117L21.8598 11.8426L21.8593 11.8468C21.8594 11.8466 21.8594 11.8462 23.1131 11.9878C24.3667 12.1294 24.3668 12.129 24.3668 12.1286L24.3669 12.1278L24.3671 12.1258L24.3677 12.1204L24.3693 12.104L24.3742 12.0501C24.3782 12.005 24.3833 11.9417 24.3885 11.8624C24.3991 11.704 24.4104 11.4805 24.415 11.2086C24.424 10.6678 24.4063 9.92052 24.2958 9.10562C24.0873 7.567 23.4946 5.38083 21.6699 4.19319C20.6032 3.49889 18.8798 3.0811 17.2271 3.01092C15.5736 2.94071 13.6312 3.2023 12.2312 4.22758C10.7815 5.28925 10.1719 7.10903 9.89321 8.40174C9.74588 9.08521 9.67311 9.70955 9.63678 10.162C9.61852 10.3893 9.60924 10.5762 9.60452 10.7089C9.60215 10.7754 9.60092 10.8285 9.60028 10.8665L9.59969 10.9122L9.5996 10.9262L9.59959 10.931L9.59959 10.9328L9.59958 10.9335C9.59958 10.9338 9.59958 10.9341 10.6967 10.9458L9.59958 10.9342L9.59958 15.6297H7.5C6.11929 15.6297 5 16.7489 5 18.1297V27.6966C5 29.0774 6.11929 30.1966 7.5 30.1966H27.0059C28.3867 30.1966 29.5059 29.0774 29.5059 27.6966V18.1297C29.5059 16.7489 28.3867 15.6297 27.0059 15.6297H12.1205L12.1205 10.9628L12.1205 10.9626L12.1205 10.9625L12.1205 10.9619L12.1205 10.9615L12.1205 10.9589L12.1208 10.9343C12.1212 10.9106 12.122 10.8728 12.1238 10.8224C12.1274 10.7214 12.1348 10.5709 12.1498 10.3836C12.1801 10.0068 12.2405 9.49301 12.3595 8.9408C12.6136 7.76216 13.0695 6.72044 13.7508 6.22147ZM7.5 18.1297H27.0059L27.0059 27.6966H7.5V18.1297Z" fill="#A3A3A3"/>
</svg>
