<svg width="34" height="34" viewBox="0 0 34 34" fill="none" xmlns="http://www.w3.org/2000/svg">
<path fill-rule="evenodd" clip-rule="evenodd" d="M17 17.3311L7.01702 8.5H26.983L17 17.3311ZM17.8333 19.9318L28.5 10.4958V25C28.5 25.2761 28.2761 25.5 28 25.5H6C5.72386 25.5 5.5 25.2761 5.5 25V10.4958L16.1299 19.8992L16.13 19.9L16.1337 19.9025L16.1718 19.9362L16.1759 19.9316L16.4435 20.1162C16.7797 20.348 17.2231 20.3522 17.5636 20.1266L17.83 19.95L17.8333 19.9318ZM3 9C3 7.34315 4.34315 6 6 6H28C29.6569 6 31 7.34315 31 9V25C31 26.6569 29.6569 28 28 28H6C4.34315 28 3 26.6569 3 25V9Z" fill="#A3A3A3"/>
</svg>
